<svg xmlns="http://www.w3.org/2000/svg" viewBox="0 0 400 400" width="400" height="400">
	<style>
		tspan { white-space:pre }
		.shp0 { fill: #c4e5f3 } 
		.shp1 { fill: #44b9ec } 
	</style>
	<g id="img1">
		<path id="Path 0" class="shp0" d="M245.46 82.34C240.53 86.93 233.8 93.95 230.5 97.93C224.93 104.66 224.6 105.34 225.89 107.34C226.66 108.53 228.68 111.19 230.39 113.26C232.1 115.33 235.91 119.61 238.85 122.76C241.79 125.92 245.46 130.75 247 133.5C248.54 136.25 250.54 139.18 251.45 140C252.35 140.82 253.08 141.95 253.07 142.5C253.06 143.05 253.69 144.18 254.47 145C255.25 145.82 257.88 150.32 260.31 155C262.74 159.68 265.09 165.07 265.53 167C265.96 168.93 266.92 171.63 267.65 173C268.39 174.38 269 176.63 269.01 178C269.02 179.38 268.11 183.2 267 186.5C265.88 189.8 264.33 193.85 263.56 195.5C262.8 197.15 261.06 201.65 259.71 205.5C258.36 209.35 255.85 215.54 254.13 219.25C252.41 222.96 251 226.68 251 227.5C251 228.32 250.02 230.91 248.83 233.25C247.63 235.59 246.56 238.4 246.43 239.5C246.31 240.6 244.83 244.43 243.15 248C241.47 251.57 239.17 257.54 238.05 261.25C236.92 264.96 235.55 268.23 235 268.5C234.45 268.77 233.99 270.01 233.99 271.25C233.98 272.49 233.04 275.52 231.9 278C230.75 280.48 229.48 283.4 229.06 284.5C228.65 285.6 226.97 289.43 225.33 293C222.78 298.56 222.47 300.08 223.21 303.5C223.69 305.7 224.48 307.95 224.96 308.5C225.51 309.13 226.31 308.58 227.13 307C227.84 305.63 229.25 302.25 230.25 299.5C231.25 296.75 232.65 293.82 233.37 293C234.08 292.18 235.45 289.7 236.41 287.5C237.38 285.3 239.14 281.48 240.33 279C241.52 276.52 244.94 270.68 247.93 266C250.91 261.32 255.19 255.29 257.43 252.58C259.67 249.87 262.18 246.66 263 245.43C263.82 244.21 267.18 239.9 270.46 235.85C273.73 231.81 279.36 225.59 282.96 222.04C286.56 218.48 294.9 210.67 301.5 204.68C308.1 198.69 315.3 192.51 317.5 190.94C319.7 189.36 323.75 186.56 326.5 184.7C329.25 182.85 332.18 180.56 333 179.62C334.33 178.1 334.33 177.62 333 175.29C332.18 173.85 329.69 170.61 327.47 168.09C325.26 165.56 322.15 161.47 320.56 159C318.97 156.53 315.98 152.47 313.91 150C311.84 147.53 308.21 142.75 305.83 139.38C303.45 136.02 298.8 129.79 295.5 125.54C292.2 121.3 287.25 114.76 284.5 111.01C281.75 107.25 277.93 102.1 276 99.55C274.07 97.01 270.07 91.68 267.09 87.71C264.12 83.74 260.29 79.03 258.59 77.23C256.89 75.43 255.25 73.97 254.96 73.98C254.66 73.99 250.38 77.75 245.46 82.34Z" />
		<path id="Path 1" class="shp1" d="M177.5 75.67C177.04 76.03 176.74 77.16 176.83 78.17C176.93 79.17 176.33 81.24 175.52 82.75C174.71 84.26 173.19 87.97 172.16 91C171.12 94.03 169.05 99.88 167.56 104C166.07 108.13 163.95 113.75 162.86 116.5C161.77 119.25 160.28 122.85 159.54 124.5C158.81 126.15 157.24 129.75 156.07 132.5C154.89 135.25 153.72 138.74 153.46 140.25C153.21 141.76 152.14 144.91 151.09 147.25C150.04 149.59 148.62 153.3 147.95 155.5C147.28 157.7 145.94 161.3 144.97 163.5C144.01 165.7 142.58 169.3 141.79 171.5C141.01 173.7 140.4 175.95 140.44 176.5C140.48 177.05 144.11 181.71 148.51 186.86C152.9 192.01 156.69 196.74 156.92 197.36C157.16 197.99 159.63 201.29 162.42 204.7C165.22 208.11 168.51 212.28 169.75 213.95C170.99 215.63 171.99 217.34 171.97 217.75C171.95 218.16 172.86 219.4 174 220.5C175.14 221.6 176.05 222.84 176.03 223.25C176.01 223.66 176.94 225.24 178.1 226.75C179.25 228.26 182.17 232.54 184.6 236.25C187.02 239.96 189.01 243.56 189.02 244.25C189.03 244.94 189.91 246.4 190.97 247.5C192.03 248.6 195.66 254.9 199.03 261.5C202.41 268.1 205.56 273.95 206.03 274.5C206.51 275.05 207.05 276.4 207.23 277.5C207.41 278.6 207.99 280.18 208.51 281C209.04 281.82 210.49 284.64 211.73 287.25C212.98 289.86 214 292.68 214 293.5C214 294.32 214.45 295.23 215 295.5C215.55 295.77 216.89 294.09 217.99 291.75C219.08 289.41 219.97 286.82 219.97 286C219.97 285.18 220.38 284.05 220.88 283.5C221.38 282.95 222.94 279.35 224.35 275.5C225.76 271.65 229.21 262.65 232.01 255.5C234.82 248.35 237.59 241.15 238.16 239.5C238.73 237.85 240.05 234.59 241.1 232.25C242.14 229.91 242.99 227.44 242.98 226.75C242.97 226.06 243.44 225.05 244.01 224.5C244.58 223.95 245.97 221.03 247.09 218C248.21 214.97 250.47 208.68 252.11 204C253.76 199.32 255.53 195.05 256.05 194.5C256.57 193.95 257.42 191.93 257.93 190C258.44 188.07 259.57 184.59 260.43 182.25C261.96 178.11 261.92 177.81 259.06 170.75C257.44 166.76 255.08 160.97 253.81 157.89C252.54 154.8 250.72 151.42 249.78 150.39C248.83 149.35 248.05 148.05 248.05 147.5C248.05 146.95 246.04 143.8 243.6 140.5C241.15 137.2 237.78 132.93 236.11 131C234.44 129.07 233.08 127.05 233.07 126.5C233.07 125.95 224.84 117.14 214.78 106.91C204.73 96.69 192.9 85.31 188.5 81.63C184.1 77.95 180.01 74.95 179.42 74.97C178.82 74.99 177.96 75.3 177.5 75.67Z" />
		<path id="Path 2" class="shp0" d="M38.64 112.75C38.39 113.16 38.74 115.53 39.42 118C40.1 120.47 41.03 123.4 41.47 124.5C41.92 125.6 43.62 130.1 45.25 134.5C46.88 138.9 48.56 143.4 48.98 144.5C49.39 145.6 50.69 148.97 51.86 152C53.03 155.03 53.99 158.06 54 158.75C54 159.44 54.42 160.79 54.93 161.75C55.44 162.71 56.85 166.2 58.05 169.5C59.26 172.8 60.81 176.63 61.51 178C62.2 179.38 63.05 181.96 63.38 183.75C63.72 185.54 64.45 187.22 65 187.5C65.55 187.78 66.01 189.01 66.03 190.25C66.05 191.49 66.73 193.4 67.55 194.5C68.37 195.6 69.03 197.4 69.02 198.5C69.02 199.6 69.7 201.85 70.54 203.5C71.38 205.15 72.04 206.95 72.01 207.5C71.98 208.05 72.62 209.85 73.44 211.5C74.25 213.15 76.55 219.22 78.54 225C80.54 230.78 82.47 236.06 82.83 236.74C83.28 237.55 87.05 238.11 94 238.37C101.04 238.64 107.79 239.64 114.5 241.41C120 242.86 125.4 244.46 126.5 244.96C127.6 245.47 131.2 247.08 134.5 248.53C137.8 249.99 141.18 251.78 142 252.52C142.82 253.25 143.72 253.86 144 253.86C144.28 253.86 145.63 254.28 147 254.8C148.38 255.32 150.18 256.49 151 257.41C151.82 258.34 152.95 259.08 153.5 259.07C154.05 259.06 155.18 259.69 156 260.48C156.82 261.27 159.84 263.39 162.69 265.2C165.54 267.02 170.94 271.03 174.69 274.12C178.44 277.2 187.13 285.65 194 292.89C200.88 300.12 206.84 306.03 207.25 306.02C207.66 306.01 208 304.99 208 303.75C208 302.51 207.07 299.02 205.92 296C204.77 292.98 203.6 289.6 203.31 288.5C203.02 287.4 201.41 283.57 199.73 280C198.05 276.43 196.29 272.82 195.82 272C195.36 271.18 193.06 266.68 190.72 262C188.38 257.32 185.23 251.7 183.73 249.5C182.22 247.3 181.01 245.28 181.03 245C181.05 244.72 179.45 241.8 177.48 238.5C175.51 235.2 173.34 231.82 172.66 231C171.97 230.18 170.76 228.21 169.96 226.64C169.16 225.07 166.32 221.24 163.66 218.14C161 215.04 158.52 211.76 158.16 210.87C157.8 209.97 154.13 205.04 150 199.91C145.88 194.78 138.9 186.81 134.5 182.2C130.1 177.58 122.22 170.13 117 165.62C111.78 161.12 104.88 155.43 101.69 152.97C98.49 150.51 94.6 147.6 93.03 146.5C91.47 145.4 86.43 141.8 81.84 138.5C77.26 135.2 73.05 132.32 72.5 132.1C71.95 131.88 67.79 129.29 63.25 126.35C58.71 123.41 54.66 121.01 54.25 121.03C53.84 121.04 51.59 119.69 49.25 118.03C46.91 116.36 44.66 115.02 44.25 115.04C43.84 115.07 42.83 114.37 42 113.5C41.17 112.63 40.18 111.93 39.8 111.96C39.41 111.98 38.89 112.34 38.64 112.75Z" />
		<path id="Path 3" class="shp1" d="M321.56 146.28C320.04 147.39 320.12 147.72 322.47 150C323.89 151.38 325.03 152.95 324.99 153.5C324.96 154.05 325.9 155.4 327.09 156.5C328.27 157.6 332.82 163.22 337.19 169L345.13 179.5C339.99 184.58 337.6 186.33 336.5 186.67C335.4 187.01 332.7 188.71 330.5 190.45C328.3 192.19 325.54 194.26 324.37 195.06C323.19 195.85 318.47 199.4 313.87 202.96C309.27 206.51 299.85 215.06 292.94 221.96C286.04 228.85 277.67 237.88 274.35 242C271.03 246.13 264.87 254.34 260.66 260.25C256.45 266.16 253 271.23 253 271.5C253 271.77 251.65 274.02 250 276.5C248.35 278.98 247 281.45 247 282C247 282.55 245.2 286.38 243 290.5C240.8 294.63 239.22 298.45 239.5 299C239.78 299.55 241.57 298.65 243.5 297C245.43 295.35 247.45 294 248 294C248.55 294 250.91 292.46 253.25 290.58C255.59 288.7 260.31 285.77 263.75 284.08C267.19 282.39 270.34 280.98 270.75 280.97C271.16 280.95 273.3 280.06 275.5 279C277.7 277.94 280.06 277.05 280.75 277.03C281.44 277.02 282.79 276.58 283.75 276.06C284.71 275.55 289.1 274.24 293.5 273.15C297.9 272.06 306.68 270.64 313 270C321.64 269.12 327.11 269.11 335 269.96C340.77 270.58 348.09 271.74 351.25 272.54C354.41 273.34 357.9 274 359 274C360.1 274 362.01 274.54 363.25 275.2C364.49 275.86 366.29 276.54 367.25 276.7C368.21 276.87 370.35 277.68 372 278.5C373.65 279.32 375.68 280 376.5 280C377.32 280 380.14 281.13 382.75 282.51C385.89 284.17 387.84 284.69 388.5 284.04C389.17 283.38 388.89 281.45 387.67 278.27C386.66 275.65 385.53 272.21 385.17 270.63C384.8 269.05 384.16 267.59 383.75 267.38C383.34 267.17 383.01 265.76 383.03 264.25C383.05 262.74 382.38 260.15 381.54 258.5C380.7 256.85 380.01 254.71 380.01 253.75C380 252.79 379.66 251.83 379.25 251.62C378.84 251.42 378.17 249.73 377.76 247.87C377.35 246.02 374.98 238.2 372.49 230.5C370 222.8 367.97 215.82 367.98 215C367.98 214.18 367.31 212.15 366.47 210.5C365.64 208.85 364.77 205.93 364.55 204C364.33 202.07 363.21 198.7 362.06 196.5C360.92 194.3 359.99 191.71 359.99 190.75C360 189.79 359.38 187.54 358.63 185.75C357.88 183.96 356.52 180.03 355.61 177C354.7 173.97 352.45 166.78 350.6 161C347.79 152.22 346.77 150.23 344.37 148.86C342.72 147.92 337.88 146.94 333 146.55C328.32 146.19 324.21 145.7 323.86 145.47C323.51 145.25 322.48 145.61 321.56 146.28ZM50.74 181.48C50.61 181.62 45.78 182.03 40 182.39C34.22 182.75 25.9 183.3 21.5 183.62C17.1 183.94 13.15 184.49 12.72 184.85C12.29 185.21 12.66 188.43 13.55 192C14.43 195.57 15.76 201.43 16.49 205C17.23 208.57 18.34 213.07 18.97 215C19.59 216.93 20.51 220.53 21 223C21.49 225.47 22.76 231.32 23.82 236C24.87 240.68 26.46 247.2 27.34 250.5C28.22 253.8 30.09 261.23 31.5 267C32.91 272.77 34.77 280.88 35.63 285C36.49 289.13 37.56 293.18 38.01 294C38.46 294.82 39.08 297.3 39.38 299.5C39.68 301.7 40.21 305.07 40.55 307C40.89 308.93 41.47 310.82 41.83 311.22C42.2 311.61 46.77 310.6 52 308.98C57.23 307.35 62.74 306.02 64.25 306.01C65.76 306.01 67.17 305.66 67.39 305.25C67.6 304.84 69.74 304.18 72.14 303.79C74.54 303.4 79.65 302.44 83.5 301.66C87.35 300.88 90.95 300.44 91.5 300.69C92.05 300.94 95.65 300.4 99.5 299.5C105.28 298.15 110.7 297.93 130.5 298.27C145.9 298.53 158.35 299.27 165.25 300.34C171.16 301.25 176.34 302.19 176.75 302.42C177.16 302.65 180.65 303.5 184.5 304.29C188.35 305.09 192.96 306.48 194.75 307.37C196.75 308.37 198.19 308.62 198.5 308C198.78 307.45 193.49 301.57 186.75 294.93C180.01 288.29 171.18 280.3 167.11 277.18C163.05 274.06 157.87 270.2 155.61 268.62C153.35 267.03 146.32 263.11 140 259.9C133.68 256.7 125.13 252.99 121 251.66C116.88 250.33 108.55 248.34 102.5 247.23C96.45 246.12 88.88 245.27 85.68 245.35C81.14 245.47 79.49 245.09 78.18 243.63C77.26 242.6 76.41 241.03 76.29 240.13C76.18 239.23 75.68 237.6 75.18 236.5C74.68 235.4 73.54 232.81 72.64 230.75C71.74 228.69 71.02 225.99 71.04 224.75C71.07 223.51 70.37 221.82 69.5 221C68.63 220.18 67.94 218.6 67.97 217.5C68.01 216.4 67.65 215.05 67.18 214.5C66.71 213.95 65.33 210.57 64.11 207C62.9 203.43 61.3 199.38 60.57 198C59.83 196.63 58.91 193.47 58.52 191C58.13 188.53 57.25 185.6 56.58 184.5C55.9 183.4 54.36 182.21 53.16 181.86C51.96 181.51 50.87 181.34 50.74 181.48ZM300 290.08C294.23 291.11 285 293.29 279.5 294.92C274 296.56 266.57 299.44 263 301.32C259.43 303.2 254.25 306 251.5 307.55C248.75 309.1 244.95 311.53 243.06 312.94C241.17 314.35 237.34 317.67 234.56 320.32C231.78 322.97 228.15 325.82 226.5 326.65C224.85 327.48 222.49 328.35 221.25 328.58C220 328.81 215.67 327.45 211.5 325.5C207.38 323.57 202.54 321.79 200.75 321.53C198.96 321.27 191.43 319.89 184 318.46C172.69 316.28 166.61 315.77 146.5 315.3C127.23 314.84 120.23 315.06 111 316.38C104.67 317.28 95.22 318.89 90 319.96C84.78 321.02 77.13 322.84 73 324C68.88 325.16 65.16 326.31 64.75 326.55C64.34 326.8 64.22 327.45 64.5 328C64.78 328.55 66.01 328.79 67.25 328.54C68.49 328.29 71.97 327.8 75 327.46C78.03 327.11 82.3 326.35 84.5 325.76C86.75 325.15 99.44 324.59 113.5 324.48C128.88 324.36 142.54 324.78 149 325.56C154.78 326.27 162.88 327.3 167 327.85C171.13 328.41 177.43 329.54 181 330.36C184.57 331.19 188.63 332.09 190 332.37C191.38 332.65 194.07 333.41 196 334.06C197.93 334.71 201.97 336.52 205 338.09C208.22 339.75 212.99 341.2 216.5 341.59C220.85 342.08 224.15 341.79 228.5 340.54C231.8 339.6 236.07 337.63 238 336.18C239.93 334.73 243.3 331.67 245.5 329.39C247.7 327.12 253.21 322.72 257.75 319.63C262.29 316.53 269.04 312.6 272.75 310.9C276.46 309.19 283.77 306.29 289 304.44C294.23 302.59 298.84 301.29 299.25 301.54C299.66 301.79 302.36 301.1 305.25 300C308.14 298.9 315.45 297.35 321.5 296.55C327.55 295.75 336.1 294.92 340.5 294.7C344.9 294.47 353.9 294.69 360.5 295.19C367.1 295.68 373.18 295.83 374 295.52C375 295.14 375.17 294.62 374.5 293.96C373.95 293.42 371.93 292.73 370 292.44C368.07 292.15 365.82 291.66 365 291.36C364.18 291.07 359.23 290.2 354 289.44C348.62 288.66 337.13 288.1 327.5 288.14C315.61 288.19 307.34 288.78 300 290.08Z" />
	</g>
</svg>