<svg xmlns="http://www.w3.org/2000/svg" viewBox="0 0 400 400" width="400" height="400">
	<style>
		tspan { white-space:pre }
		.shp0 { fill: #0e89f1 } 
		.shp1 { fill: #075c94 } 
	</style>
	<g id="img1">
		<path id="Path 0" class="shp0" d="M245.98 82.84C241.31 87.16 234.8 93.95 231.5 97.93C225.93 104.66 225.6 105.34 226.89 107.34C227.66 108.53 229.68 111.18 231.39 113.23C233.1 115.28 236.91 119.56 239.86 122.73C242.8 125.9 246.47 130.75 248.01 133.5C249.54 136.25 251.54 139.18 252.45 140C253.35 140.82 254.08 141.95 254.07 142.5C254.06 143.05 254.69 144.18 255.47 145C256.25 145.82 258.88 150.32 261.31 155C263.74 159.68 266.09 165.07 266.53 167C266.96 168.93 267.92 171.63 268.65 173C269.39 174.38 270 176.63 270.01 178C270.02 179.38 269.11 183.2 268 186.5C266.88 189.8 265.33 193.85 264.56 195.5C263.8 197.15 262.06 201.65 260.71 205.5C259.36 209.35 256.85 215.54 255.13 219.25C253.41 222.96 252 226.68 252 227.5C252 228.32 251.02 230.91 249.83 233.25C248.63 235.59 247.56 238.4 247.43 239.5C247.31 240.6 245.83 244.43 244.15 248C242.47 251.57 240.17 257.54 239.05 261.25C237.92 264.96 236.55 268.23 236 268.5C235.45 268.77 234.99 270.01 234.99 271.25C234.98 272.49 234.04 275.52 232.9 278C231.75 280.48 230.48 283.4 230.06 284.5C229.65 285.6 227.97 289.43 226.33 293C223.71 298.74 223.47 300.03 224.27 304C225.09 308.03 225.3 308.29 226.32 306.5C226.94 305.4 228.26 302.25 229.26 299.5C230.26 296.75 231.65 293.82 232.37 293C233.08 292.18 234.45 289.7 235.41 287.5C236.38 285.3 238.14 281.48 239.33 279C240.52 276.52 243.94 270.68 246.93 266C249.91 261.32 254.19 255.29 256.43 252.58C258.67 249.87 261.18 246.66 262 245.43C262.82 244.21 266.18 239.9 269.45 235.85C272.72 231.81 278.57 225.35 282.45 221.5C286.33 217.65 294.9 209.62 301.5 203.65C308.1 197.68 315.3 191.51 317.5 189.94C319.7 188.36 323.86 185.49 326.75 183.54C329.64 181.59 332.23 179.32 332.5 178.5C332.77 177.68 331.71 175.09 330.14 172.75C328.56 170.41 326.47 167.82 325.5 167C324.52 166.18 322.14 163.03 320.21 160C318.28 156.97 315 152.47 312.93 150C310.85 147.53 307.21 142.75 304.83 139.38C302.45 136.02 297.8 129.79 294.5 125.54C291.2 121.3 286.25 114.76 283.5 111.01C280.75 107.25 276.93 102.1 275 99.55C273.07 97.01 269.06 91.68 266.09 87.71C263.11 83.74 259.51 79.25 258.09 77.73C256.66 76.2 255.26 74.97 254.98 74.98C254.69 74.99 250.64 78.53 245.98 82.84Z" />
		<path id="Path 1" class="shp1" d="M178 78C178 79.1 177.33 81.24 176.52 82.75C175.71 84.26 174.19 87.97 173.16 91C172.12 94.03 170.05 99.88 168.56 104C167.07 108.13 164.95 113.75 163.86 116.5C162.77 119.25 161.28 122.85 160.54 124.5C159.81 126.15 158.24 129.75 157.07 132.5C155.89 135.25 154.72 138.74 154.46 140.25C154.21 141.76 153.14 144.91 152.09 147.25C151.04 149.59 149.62 153.3 148.95 155.5C148.28 157.7 146.94 161.3 145.97 163.5C145.01 165.7 143.58 169.3 142.79 171.5C142.01 173.7 141.4 175.95 141.44 176.5C141.48 177.05 145.11 181.71 149.51 186.86C153.9 192.01 157.69 196.74 157.92 197.36C158.16 197.99 160.63 201.29 163.42 204.7C166.22 208.11 169.51 212.28 170.75 213.95C171.99 215.63 172.99 217.34 172.97 217.75C172.95 218.16 173.86 219.4 175 220.5C176.14 221.6 177.05 222.84 177.03 223.25C177.01 223.66 177.94 225.24 179.1 226.75C180.25 228.26 183.17 232.54 185.6 236.25C188.02 239.96 190.01 243.56 190.02 244.25C190.03 244.94 190.91 246.4 191.97 247.5C193.03 248.6 196.66 254.9 200.03 261.5C203.41 268.1 206.56 273.95 207.03 274.5C207.51 275.05 208.05 276.4 208.23 277.5C208.41 278.6 208.99 280.18 209.51 281C210.04 281.82 211.49 284.64 212.73 287.25C213.98 289.86 215 292.79 214.99 293.75C214.99 294.71 215.89 293.7 217 291.5C218.11 289.3 219.01 286.82 218.99 286C218.98 285.18 219.38 284.05 219.88 283.5C220.38 282.95 221.94 279.35 223.35 275.5C224.76 271.65 228.21 262.65 231.01 255.5C233.82 248.35 236.59 241.15 237.16 239.5C237.73 237.85 239.05 234.59 240.1 232.25C241.14 229.91 241.99 227.44 241.98 226.75C241.97 226.06 242.44 225.05 243.01 224.5C243.58 223.95 244.97 221.03 246.09 218C247.21 214.97 249.47 208.68 251.11 204C252.76 199.32 254.53 195.05 255.05 194.5C255.57 193.95 256.42 191.93 256.93 190C257.44 188.07 258.57 184.59 259.43 182.25C260.96 178.11 260.92 177.81 258.06 170.75C256.44 166.76 254.08 160.97 252.81 157.89C251.54 154.8 249.72 151.42 248.78 150.39C247.83 149.35 247.05 148.05 247.05 147.5C247.05 146.95 245.04 143.8 242.6 140.5C240.15 137.2 236.78 132.93 235.11 131C233.44 129.07 232.08 127.05 232.08 126.5C232.07 125.95 224.07 117.37 214.29 107.43C204.5 97.5 192.9 86.35 188.5 82.65C184.1 78.96 179.94 75.95 179.25 75.97C178.56 75.99 178 76.9 178 78Z" />
		<path id="Path 2" class="shp0" d="M39.4 114.75C39.79 115.71 40.34 117.63 40.63 119C40.92 120.38 41.55 122.4 42.03 123.5C42.51 124.6 44.33 129.32 46.06 134C47.8 138.68 49.56 143.4 49.98 144.5C50.39 145.6 51.69 148.97 52.86 152C54.03 155.03 54.99 158.06 55 158.75C55 159.44 55.42 160.79 55.93 161.75C56.44 162.71 57.85 166.2 59.05 169.5C60.26 172.8 61.81 176.63 62.51 178C63.2 179.38 64.05 181.96 64.38 183.75C64.72 185.54 65.45 187.22 66 187.5C66.55 187.78 67.01 189.01 67.03 190.25C67.05 191.49 67.73 193.4 68.55 194.5C69.37 195.6 70.03 197.4 70.02 198.5C70.02 199.6 70.7 201.85 71.54 203.5C72.38 205.15 73.04 207.18 73.01 208C72.99 208.82 73.38 209.95 73.88 210.5C74.38 211.05 76.44 216.22 78.46 222C80.47 227.78 82.56 233.63 83.09 235C84.03 237.43 84.35 237.5 94.28 237.64C101.79 237.73 107.16 238.47 114.5 240.41C120 241.86 125.4 243.46 126.5 243.96C127.6 244.47 131.2 246.08 134.5 247.53C137.8 248.99 141.33 250.93 142.35 251.84C143.38 252.75 144.28 253.36 144.35 253.18C144.43 253 145.63 253.28 147 253.8C148.38 254.32 150.18 255.49 151 256.41C151.82 257.34 152.95 258.05 153.5 258C154.05 257.95 155.18 258.66 156 259.58C156.82 260.5 159.07 262.04 161 263.01C162.93 263.98 167.2 266.94 170.5 269.6C173.8 272.25 183.58 281.64 192.24 290.46C206.24 304.73 207.88 306.11 207.11 303C206.64 301.07 205.49 297.48 204.56 295C203.63 292.52 202.62 289.6 202.33 288.5C202.03 287.4 200.41 283.57 198.73 280C197.05 276.43 195.29 272.82 194.82 272C194.36 271.18 192.06 266.68 189.72 262C187.38 257.32 184.23 251.7 182.73 249.5C181.22 247.3 180.01 245.28 180.03 245C180.05 244.72 178.45 241.8 176.48 238.5C174.51 235.2 172.34 231.82 171.66 231C170.97 230.18 169.76 228.21 168.96 226.64C168.16 225.07 165.32 221.24 162.66 218.14C160 215.04 157.52 211.76 157.16 210.87C156.8 209.97 153.13 205.04 149 199.91C144.88 194.79 138.13 187.04 134 182.7C129.88 178.36 122.22 171.12 117 166.62C111.78 162.12 104.88 156.43 101.69 153.97C98.49 151.51 94.6 148.6 93.03 147.5C91.47 146.4 86.43 142.8 81.84 139.5C77.26 136.2 73.05 133.32 72.5 133.1C71.95 132.88 67.79 130.29 63.25 127.35C58.71 124.41 54.66 122.01 54.25 122.03C53.84 122.04 51.59 120.69 49.25 119.03C46.91 117.36 44.66 116.02 44.25 116.04C43.84 116.07 42.83 115.37 42 114.5C41.17 113.63 40.09 112.93 39.59 112.96C39.09 112.98 39.01 113.79 39.4 114.75Z" />
		<path id="Path 3" class="shp1" d="M322.12 146.82C321.35 147.28 321.8 148.32 323.51 150C324.91 151.38 326.03 152.95 325.99 153.5C325.96 154.05 326.9 155.4 328.09 156.5C329.27 157.6 333.82 163.22 338.19 169L346.14 179.5C340.22 185.35 337.6 187.33 336.5 187.67C335.4 188.01 332.7 189.71 330.5 191.45C328.3 193.19 325.54 195.26 324.37 196.06C323.19 196.85 318.47 200.41 313.87 203.97C309.27 207.54 300.08 215.86 293.47 222.47C286.85 229.09 278.71 237.88 275.37 242C272.04 246.13 265.87 254.34 261.66 260.25C257.45 266.16 254 271.23 254 271.5C254 271.77 252.65 274.02 251 276.5C249.35 278.98 248 281.45 248 282C248 282.55 246.2 286.38 244 290.5C241.8 294.63 240 298.23 240 298.5C240 298.77 241.57 297.65 243.5 296C245.43 294.35 247.45 293 248 293C248.55 293 250.91 291.46 253.25 289.58C255.59 287.7 260.31 284.77 263.75 283.08C267.19 281.39 270.34 279.98 270.75 279.97C271.16 279.95 273.3 279.06 275.5 278C277.7 276.94 280.06 276.05 280.75 276.03C281.44 276.02 282.79 275.58 283.75 275.06C284.71 274.55 289.1 273.24 293.5 272.15C297.9 271.06 306.68 269.64 313 269C321.64 268.12 327.11 268.11 335 268.96C340.77 269.58 348.09 270.74 351.25 271.54C354.41 272.34 357.9 273 359 273C360.1 273 362.01 273.54 363.25 274.2C364.49 274.86 366.29 275.54 367.25 275.7C368.21 275.87 370.35 276.68 372 277.5C373.65 278.32 375.68 279 376.5 279C377.32 279 380.14 280.15 382.75 281.55C385.36 282.95 387.63 283.74 387.79 283.3C387.95 282.86 387.34 280.48 386.45 278C385.55 275.52 384.52 272.21 384.16 270.63C383.79 269.05 383.16 267.59 382.75 267.38C382.34 267.17 382.01 265.76 382.03 264.25C382.05 262.74 381.38 260.15 380.54 258.5C379.7 256.85 379.01 254.71 379.01 253.75C379 252.79 378.66 251.83 378.25 251.62C377.84 251.42 377.17 249.73 376.76 247.87C376.35 246.02 373.98 238.2 371.49 230.5C369 222.8 366.97 215.82 366.98 215C366.98 214.18 366.31 212.15 365.47 210.5C364.64 208.85 363.77 205.93 363.55 204C363.33 202.07 362.21 198.7 361.06 196.5C359.92 194.3 358.99 191.71 358.99 190.75C359 189.79 358.39 187.54 357.65 185.75C356.91 183.96 355.61 180.25 354.75 177.5C353.9 174.75 351.69 167.62 349.85 161.66C347.14 152.91 346.02 150.58 344 149.55C342.63 148.84 337.68 147.95 333 147.57C328.32 147.2 324.22 146.72 323.89 146.51C323.55 146.3 322.75 146.44 322.12 146.82ZM50.74 182.48C50.61 182.62 45.78 183.03 40 183.39C34.22 183.75 25.9 184.31 21.5 184.63C17.1 184.95 13.38 185.28 13.23 185.36C13.08 185.44 13.68 188.43 14.56 192C15.44 195.57 16.76 201.43 17.49 205C18.23 208.57 19.34 213.07 19.97 215C20.59 216.93 21.51 220.53 22 223C22.49 225.47 23.76 231.32 24.82 236C25.87 240.68 27.46 247.2 28.34 250.5C29.22 253.8 31.09 261.23 32.5 267C33.91 272.77 35.77 280.88 36.63 285C37.49 289.13 38.56 293.18 39.01 294C39.46 294.82 40.08 297.3 40.38 299.5C40.68 301.7 41.21 305.07 41.56 307C41.91 308.93 42.26 310.59 42.34 310.71C42.43 310.82 46.77 309.59 52 307.97C57.23 306.35 62.74 305.02 64.25 305.01C65.76 305.01 67.17 304.66 67.39 304.25C67.6 303.84 69.74 303.18 72.14 302.79C74.54 302.4 79.65 301.44 83.5 300.66C87.35 299.88 90.95 299.44 91.5 299.69C92.05 299.94 95.65 299.4 99.5 298.5C105.28 297.15 110.7 296.93 130.5 297.27C145.9 297.53 158.35 298.27 165.25 299.34C171.16 300.25 176.34 301.19 176.75 301.42C177.16 301.65 180.65 302.5 184.5 303.29C188.35 304.09 192.96 305.48 194.75 306.37C196.54 307.27 198 307.77 198 307.5C198 307.23 192.71 301.79 186.25 295.42C179.79 289.06 171.18 281.3 167.11 278.17C163.05 275.05 157.87 271.2 155.61 269.62C153.35 268.03 146.32 264.11 140 260.9C133.68 257.7 125.13 253.99 121 252.66C116.88 251.33 108.55 249.34 102.5 248.23C96.45 247.12 88.89 246.27 85.69 246.35C80.78 246.48 79.55 246.14 77.69 244.16C76.49 242.87 75.41 241.07 75.29 240.16C75.18 239.25 74.68 237.6 74.18 236.5C73.68 235.4 72.54 232.81 71.64 230.75C70.74 228.69 70.02 225.99 70.04 224.75C70.07 223.51 69.37 221.82 68.5 221C67.63 220.18 66.94 218.6 66.97 217.5C67.01 216.4 66.65 215.05 66.18 214.5C65.71 213.95 64.33 210.57 63.11 207C61.9 203.43 60.3 199.38 59.57 198C58.83 196.63 57.9 193.47 57.5 191C57.1 188.53 56.43 185.82 56.01 185C55.6 184.18 54.3 183.21 53.12 182.86C51.94 182.51 50.87 182.34 50.74 182.48ZM300 291.08C294.23 292.11 285 294.29 279.5 295.92C274 297.56 266.57 300.44 263 302.32C259.43 304.2 254.25 307 251.5 308.55C248.75 310.1 245.15 312.39 243.5 313.63C241.85 314.87 238.03 318.18 235 320.99C231.97 323.8 228.15 326.79 226.5 327.63C224.85 328.47 222.49 329.35 221.25 329.58C220 329.81 215.67 328.45 211.5 326.5C207.38 324.57 202.54 322.79 200.75 322.53C198.96 322.27 191.43 320.89 184 319.46C172.69 317.28 166.61 316.77 146.5 316.3C127.23 315.84 120.23 316.06 111 317.38C104.67 318.28 95.22 319.89 90 320.96C84.78 322.02 77.13 323.83 73 324.99C68.88 326.14 65.28 327.35 65 327.68C64.72 328.01 65.63 328.01 67 327.68C68.38 327.35 71.97 326.8 75 326.46C78.03 326.11 82.3 325.35 84.5 324.76C86.75 324.15 99.44 323.59 113.5 323.48C128.88 323.36 142.54 323.78 149 324.56C154.78 325.27 162.88 326.3 167 326.85C171.13 327.41 177.43 328.54 181 329.36C184.57 330.19 188.63 331.09 190 331.37C191.38 331.65 194.07 332.41 196 333.06C197.93 333.71 201.97 335.52 205 337.07C208.17 338.7 213.04 340.18 216.5 340.57C220.78 341.06 224.22 340.78 228.5 339.6C232.42 338.52 236.31 336.49 239.71 333.73C242.58 331.4 245.55 328.6 246.31 327.5C247.07 326.4 251.81 322.69 256.84 319.25C261.88 315.81 269.04 311.6 272.75 309.9C276.46 308.19 283.77 305.29 289 303.44C294.23 301.59 298.84 300.29 299.25 300.54C299.66 300.79 302.36 300.1 305.25 299C308.14 297.9 315.45 296.32 321.5 295.48C327.55 294.65 337.45 293.88 343.5 293.78C349.55 293.68 359 293.96 364.5 294.4C370 294.84 374.27 294.93 374 294.6C373.73 294.27 371.93 293.75 370 293.45C368.07 293.15 365.82 292.66 365 292.36C364.18 292.07 359.23 291.2 354 290.44C348.62 289.66 337.13 289.1 327.5 289.14C315.61 289.19 307.34 289.78 300 291.08Z" />
	</g>
</svg>